<svg width="30" height="40" viewBox="0 0 30 40" fill="none" xmlns="http://www.w3.org/2000/svg">
<path d="M14.7075 10.1844C6.66218 10.1844 0.202087 16.4826 0.202087 24.6388C0.202087 32.7949 6.66218 39.0931 14.7075 39.0931C22.7528 39.0931 29.2129 32.7949 29.2129 24.6388C29.2215 16.4741 22.7613 10.1844 14.7075 10.1844ZM14.7075 31.0904C11.1451 31.0904 8.40931 28.5165 8.40931 24.6302C8.40931 20.7439 11.1451 18.1701 14.7075 18.1701C18.2699 18.1701 21.0057 20.7439 21.0057 24.6302C21.0057 28.5165 18.2699 31.0904 14.7075 31.0904Z" fill="#1C1C1F"/>
<path d="M8.32404 0L3.91785 7.5084C7.59108 7.5084 12.5257 7.5084 16.1989 7.5084C17.6392 7.5084 19.0881 7.5084 20.5284 7.5084L16.037 0H8.32404Z" fill="#F7B40D"/>
<path d="M25.9659 7.57656L21.5256 0H17.5541L22.0881 7.57656H25.9659Z" fill="#ED0394"/>
</svg>
