<svg preserveAspectRatio="xMidYMid meet" focusable="false" width="0" height="0" visibility="hidden"
     style="pointer-events: none;position: absolute;" xmlns="http://www.w3.org/2000/svg">
    <!-- social -->
    <symbol id="linkedin" viewBox="0 0 21 20" fill="currentColor">
        <path d="M2.40783 4.81567C3.73764 4.81567 4.81567 3.73764 4.81567 2.40783C4.81567 1.07802 3.73764 0 2.40783 0C1.07802 0 0 1.07802 0 2.40783C0 3.73764 1.07802 4.81567 2.40783 4.81567Z"/>
        <path d="M7.08924 6.64026V19.9989H11.2369V13.3928C11.2369 11.6496 11.5649 9.96149 13.7262 9.96149C15.8578 9.96149 15.8842 11.9544 15.8842 13.5028V20H20.0341V12.6742C20.0341 9.07561 19.2594 6.31012 15.0534 6.31012C13.034 6.31012 11.6804 7.4183 11.1269 8.46705H11.0708V6.64026H7.08924ZM0.330139 6.64026H4.48442V19.9989H0.330139V6.64026Z"/>
    </symbol>
    <symbol id="instagram" viewBox="0 0 20 20" fill="currentColor">
        <path d="M10 0C7.28153 0 6.94274 0.0131266 5.87886 0.0581323C4.8106 0.110639 4.08801 0.276285 3.45043 0.523815C2.78314 0.775735 2.17881 1.17016 1.67958 1.67958C1.16874 2.17765 0.774095 2.78231 0.523815 3.45043C0.276285 4.08801 0.110639 4.8106 0.0581323 5.87886C0.0100013 6.94337 0 7.28154 0 10C0 12.7185 0.0131266 13.0573 0.0581323 14.1211C0.110639 15.1863 0.276285 15.912 0.523815 16.5496C0.775735 17.2169 1.17016 17.8212 1.67958 18.3204C2.17765 18.8313 2.78231 19.2259 3.45043 19.4762C4.08801 19.7206 4.81373 19.8894 5.87886 19.9419C6.94337 19.99 7.28153 20 10 20C12.7185 20 13.0573 19.9869 14.1211 19.9419C15.1863 19.8894 15.912 19.72 16.5496 19.4762C17.2169 19.2243 17.8212 18.8298 18.3204 18.3204C18.8319 17.8229 19.2267 17.2181 19.4762 16.5496C19.7206 15.912 19.8894 15.1863 19.9419 14.1211C19.99 13.0566 20 12.7185 20 10C20 7.28154 19.9869 6.94274 19.9419 5.87886C19.8894 4.81373 19.72 4.08426 19.4762 3.45043C19.2243 2.78314 18.8298 2.17881 18.3204 1.67958C17.8229 1.16808 17.2181 0.773334 16.5496 0.523815C15.912 0.276285 15.1863 0.110639 14.1211 0.0581323C13.0566 0.0100013 12.7185 0 10 0ZM10 1.80023C12.6697 1.80023 12.9885 1.81335 14.0436 1.85836C15.0169 1.90399 15.5469 2.06651 15.8989 2.20403C16.3339 2.36462 16.7277 2.62023 17.0515 2.95224C17.383 3.27468 17.6376 3.66755 17.7966 4.10176C17.9341 4.45368 18.0966 4.98375 18.1423 5.95699C18.1873 7.01213 18.2004 7.33154 18.2004 10.0006C18.2004 12.6697 18.1873 12.9891 18.1385 14.0443C18.086 15.0175 17.9235 15.5476 17.7866 15.8995C17.5972 16.3689 17.3859 16.6971 17.0371 17.0521C16.7122 17.3821 16.3187 17.6364 15.8845 17.7972C15.5369 17.9347 14.9994 18.0973 14.0224 18.1429C12.9616 18.1879 12.6491 18.201 9.9725 18.201C7.29591 18.201 6.984 18.1879 5.92199 18.1391C4.94874 18.0866 4.4118 17.9241 4.05988 17.7872C3.58482 17.5978 3.25916 17.3865 2.91036 17.0378C2.55844 16.6858 2.33467 16.3508 2.16214 15.8851C2.02213 15.5376 1.86211 15 1.81023 14.023C1.7746 12.9747 1.75772 12.6497 1.75772 9.98562C1.75772 7.32279 1.7746 6.99712 1.81023 5.93574C1.86211 4.95875 2.02213 4.42243 2.16214 4.07363C2.33467 3.59795 2.55907 3.27291 2.91036 2.92099C3.25853 2.57282 3.58482 2.34779 4.05988 2.17152C4.4118 2.03463 4.93562 1.87211 5.91261 1.82335C6.97337 1.78522 7.28591 1.77147 9.95874 1.77147L10 1.80023ZM10 4.86748C9.32575 4.86724 8.65807 4.99986 8.0351 5.25777C7.41213 5.51567 6.84609 5.89382 6.36933 6.37058C5.89257 6.84734 5.51442 7.41338 5.25652 8.03635C4.99861 8.65932 4.86599 9.32701 4.86623 10.0013C4.86599 10.6755 4.99861 11.3432 5.25652 11.9661C5.51442 12.5891 5.89257 13.1552 6.36933 13.6319C6.84609 14.1087 7.41213 14.4868 8.0351 14.7447C8.65807 15.0026 9.32575 15.1353 10 15.135C10.6742 15.1353 11.3419 15.0026 11.9649 14.7447C12.5879 14.4868 13.1539 14.1087 13.6307 13.6319C14.1074 13.1552 14.4856 12.5891 14.7435 11.9661C15.0014 11.3432 15.134 10.6755 15.1338 10.0013C15.134 9.32701 15.0014 8.65932 14.7435 8.03635C14.4856 7.41338 14.1074 6.84734 13.6307 6.37058C13.1539 5.89382 12.5879 5.51567 11.9649 5.25777C11.3419 4.99986 10.6742 4.86724 10 4.86748ZM10 13.3348C8.15727 13.3348 6.66646 11.844 6.66646 10.0013C6.66646 8.15852 8.15727 6.66771 10 6.66771C11.8427 6.66771 13.3335 8.15852 13.3335 10.0013C13.3335 11.844 11.8427 13.3348 10 13.3348ZM16.5408 4.66246C16.5405 4.98104 16.4137 5.28646 16.1883 5.51161C15.9629 5.73676 15.6574 5.86323 15.3388 5.86323C15.1813 5.86323 15.0253 5.83221 14.8798 5.77192C14.7342 5.71164 14.602 5.62329 14.4906 5.5119C14.3792 5.40051 14.2909 5.26828 14.2306 5.12275C14.1703 4.97721 14.1393 4.82123 14.1393 4.66371C14.1393 4.50618 14.1703 4.3502 14.2306 4.20467C14.2909 4.05914 14.3792 3.9269 14.4906 3.81552C14.602 3.70413 14.7342 3.61577 14.8798 3.55549C15.0253 3.49521 15.1813 3.46418 15.3388 3.46418C15.9995 3.46418 16.5408 4.00175 16.5408 4.66246Z"/>
    </symbol>

    <!-- actions -->
    <symbol id="external-link" viewBox="0 0 12 13" fill="none">
        <path d="M1 11.5L11 1.5M11 1.5H4.5M11 1.5V7.5" stroke="currentColor" stroke-width="1.5"/>
    </symbol>

    <!--common -->
    <symbol id="star" viewBox="0 0 34 34" fill="currentColor">
        <path d="M17 0L22.6498 11.3502L34 17L22.6498 22.6498L17 34L11.3502 22.6498L0 17L11.3502 11.3502L17 0Z"/>
    </symbol>
    <symbol id="star-alt" viewBox="0 0 12 11" fill="currentColor">
        <path d="M5.56104 0.804893C5.75054 0.457422 6.24946 0.457422 6.43896 0.804893L7.75552 3.21895C7.82743 3.35082 7.95481 3.44337 8.10245 3.47101L10.8052 3.97714C11.1942 4.04999 11.3484 4.5245 11.0765 4.8121L9.18742 6.81021C9.08423 6.91935 9.03557 7.0691 9.0549 7.21805L9.40874 9.94491C9.45967 10.3374 9.05602 10.6307 8.69848 10.4609L6.21442 9.28178C6.07873 9.21737 5.92127 9.21737 5.78558 9.28178L3.30152 10.4609C2.94397 10.6307 2.54033 10.3374 2.59126 9.94491L2.9451 7.21805C2.96443 7.0691 2.91577 6.91935 2.81258 6.81021L0.923513 4.8121C0.651607 4.5245 0.805784 4.04999 1.19481 3.97714L3.89755 3.47101C4.04519 3.44337 4.17257 3.35082 4.24448 3.21895L5.56104 0.804893Z"/>
    </symbol>

    <!-- brands -->
    <!-- TODO: test using it as icon or use it as webp -->
    <symbol id="rede" viewBox="0 0 81 27" fill="currentColor">
        <path
                d="M79.2554 16.5035H61.5785C59.0036 16.5035 57.913 15.4934 57.4675 14.1537H63.0415C66.7654 14.1537 69.0543 12.5084 69.0543 8.95764C69.0543 5.40688 66.7654 3.57745 63.0415 3.57745H61.2712C57.9356 3.57745 53.8818 5.5243 53.0253 10.1839H48.0485V0H43.8311V10.1839H38.6255C33.6354 10.2093 30.8571 12.7433 30.4953 16.5035H21.7852C19.2104 16.5035 18.1198 15.4934 17.6742 14.1537H23.2429C26.9669 14.1537 29.2558 12.5084 29.2558 8.95764C29.2558 5.40688 26.9655 3.57745 23.2429 3.57745H21.474C18.1384 3.57745 14.0846 5.5243 13.2281 10.1839H9.57592C7.28568 10.1839 5.25479 10.8898 4.13626 12.2736V10.4975H0V25.1476C0 25.9829 0.265998 26.2444 1.06399 26.2444H3.14941C3.93012 26.2444 4.2134 25.9776 4.2134 25.1476V19.3764C4.2134 15.0157 6.94653 14.1537 9.7568 14.1537H13.2706C14.1471 18.4811 17.758 20.5493 21.9448 20.5493H31.0233C32.0674 23.0526 34.5571 24.3616 38.5497 24.3616H40.9636C44.9204 24.3616 48.252 21.5408 48.252 17.3895V14.1537H53.0665C53.9443 18.4811 57.5553 20.5493 61.7394 20.5493H79.2554C79.4865 20.5458 79.7069 20.4504 79.868 20.284C80.029 20.1176 80.1177 19.8939 80.1145 19.662V17.3402C80.1131 17.2286 80.0898 17.1183 80.0458 17.0158C80.0018 16.9132 79.9381 16.8204 79.8583 16.7427C79.7784 16.665 79.6841 16.6038 79.5806 16.5628C79.4771 16.5217 79.3666 16.5016 79.2554 16.5035ZM21.3171 7.54721H23.3732C24.3042 7.54721 24.9612 7.93952 24.9612 8.88159C24.9612 9.76894 24.3109 10.1866 23.3732 10.1866H17.5559C17.903 8.71345 18.8699 7.54721 21.3171 7.54721ZM43.8311 17.523C43.8311 19.1683 42.5822 20.3438 40.9676 20.3438H38.2611C36.0746 20.3438 34.6435 19.4818 34.6435 17.3148C34.6435 15.1998 36.0746 14.155 38.2611 14.155H43.8311V17.523ZM61.1143 7.54721H63.1745C64.1055 7.54721 64.7625 7.93952 64.7625 8.88159C64.7625 9.76894 64.1121 10.1866 63.1745 10.1866H57.3558C57.7002 8.71345 58.6671 7.54721 61.1143 7.54721Z"/>
    </symbol>
    <symbol id="itau" viewBox="0 0 62 26" fill="currentColor">
        <path fill-rule="evenodd" clip-rule="evenodd" d="M0.108276 24.8462H5.83547V0.00372314H0.108276V24.8462Z"/>
        <path fill-rule="evenodd" clip-rule="evenodd"
              d="M31.4983 5.68516H31.1711L30.8483 5.69612L30.5298 5.70927L30.2222 5.729L29.9189 5.74653L29.6199 5.77502L29.3252 5.8079L29.0349 5.84077L28.7533 5.88241L28.4781 5.92405L28.2052 5.97008L27.9387 6.02049L27.6809 6.07309L27.4274 6.12788L27.1782 6.18924L26.9356 6.25061L26.6994 6.31417L26.4698 6.37992L26.2488 6.45005L26.0321 6.52019L25.8198 6.59032L25.6183 6.66484L25.4212 6.73935L25.2305 6.81825L25.0464 6.89277L24.8687 6.97167L24.6976 7.05057L24.5307 7.12947L24.3748 7.20837L24.2231 7.28727L24.0801 7.36836L23.9414 7.44726L25.0204 11.1073L25.1439 11.0328L25.2739 10.9583L25.406 10.8838L25.5447 10.8137L25.6877 10.7435L25.835 10.6734L25.9866 10.6033L26.1426 10.5397L26.3051 10.4739L26.4698 10.4082L26.6366 10.3424L26.8056 10.2833L26.9767 10.2263L27.1522 10.1671L27.3299 10.1101L27.5097 10.0597L27.6939 10.0071L27.878 9.96109L28.0665 9.91507L28.2507 9.87343L28.4413 9.83179L28.6341 9.79453L28.8226 9.76165L29.0154 9.72878L29.2039 9.70029L29.3989 9.67837L29.5917 9.65426L29.7802 9.64111L29.973 9.62577L30.1615 9.61262L30.3565 9.60824H30.545L30.8483 9.61262L31.143 9.62577L31.4181 9.64988L31.6759 9.67837L31.9251 9.72001L32.1612 9.76604L32.3822 9.82083L32.588 9.8822L32.7873 9.95233L32.9715 10.0268L33.1405 10.1057L33.2965 10.189L33.4438 10.2789L33.5825 10.3709L33.7124 10.4696L33.8273 10.566L33.9334 10.669L34.0331 10.7764L34.1219 10.8794L34.1999 10.9868L34.2692 11.0986L34.3342 11.206L34.3884 11.3112L34.4382 11.4186L34.4816 11.5259L34.5119 11.629L34.5401 11.732L34.5639 11.8284L34.5812 11.927L34.5921 12.0191L34.6007 12.1089V12.1922V12.3916L33.9139 12.3982L33.2423 12.4158L32.588 12.4486L31.9532 12.4947L31.3358 12.556L30.7378 12.6349L30.1529 12.7226L29.5917 12.83L29.0479 12.9461L28.528 13.082L28.021 13.2311L27.5379 13.3932L27.0786 13.5708L26.6366 13.7614L26.212 13.9675L25.8112 14.1866L25.4342 14.4189L25.0789 14.6644L24.7431 14.9252L24.4354 15.2057L24.1451 15.4944L23.883 15.7971L23.6425 16.1184L23.4215 16.4491L23.233 16.7936L23.064 17.157L22.921 17.5296L22.8062 17.9208L22.713 18.3212L22.6437 18.7359L22.6069 19.1689L22.5939 19.6114L22.5982 19.8768L22.6155 20.1422L22.648 20.4077L22.6957 20.6685L22.7542 20.9293L22.8235 21.1901L22.9059 21.4463L23.0033 21.6979L23.1095 21.9447L23.233 22.1868L23.3673 22.4244L23.5103 22.6572L23.6663 22.8853L23.8375 23.1043L24.0216 23.3186L24.2144 23.5235L24.4202 23.719L24.6369 23.9053L24.8687 24.0824L25.107 24.2501L25.3605 24.4083L25.627 24.5573L25.9043 24.6924L26.1946 24.8136L26.4936 24.9253L26.8013 25.0231L27.1284 25.107L27.4599 25.1767L27.8044 25.2326L28.1597 25.2747L28.528 25.2979L28.9049 25.3071L29.1346 25.3025L29.3621 25.2933L29.5831 25.2839L29.804 25.2653L30.0185 25.242L30.2352 25.214L30.4475 25.1815L30.6598 25.1443L30.8656 25.0976L31.0693 25.0511L31.2708 24.9998L31.4701 24.944L31.6629 24.8835L31.8557 24.8182L32.0442 24.7436L32.2284 24.6691L32.4082 24.59L32.588 24.5061L32.7635 24.4223L32.9347 24.3292L33.0993 24.2314L33.2596 24.1335L33.4221 24.0265L33.5738 23.9194L33.7254 23.8076L33.8728 23.6912L34.0158 23.57L34.1501 23.4442L34.2822 23.3186L34.4122 23.1882L34.5357 23.053L34.6549 22.9134H34.7199L35.346 24.8462H40.0062V13.836L39.9997 13.4173L39.978 13.0075L39.9455 12.602L39.9 12.201L39.8394 11.8065L39.7614 11.4186L39.6747 11.0416L39.5686 10.6734L39.4429 10.3118L39.3107 9.96109L39.1526 9.62139L38.9836 9.29045L38.7951 8.97046L38.5914 8.66144L38.3661 8.36337L38.1278 8.08065L37.87 7.80888L37.5884 7.55465L37.2894 7.31138L36.9709 7.08344L36.6351 6.86866L36.2754 6.6736L35.8985 6.49169L35.4977 6.32951L35.0795 6.18048L34.6332 6.05336L34.1674 5.94159L33.6799 5.84954L33.1687 5.7794L32.6335 5.729L32.0767 5.69612L31.4983 5.68516ZM34.7654 17.9767V18.0884L34.761 18.2048L34.7524 18.3212L34.7437 18.4424L34.7285 18.5588L34.7155 18.68L34.696 18.7963L34.6701 18.9127L34.6592 18.9546L34.6419 19.0153L34.6289 19.0712L34.6137 19.1084L34.5964 19.1549L34.5769 19.2016L34.5271 19.318L34.4707 19.4297L34.4122 19.5415L34.3472 19.6533L34.2779 19.7605L34.2042 19.8722L34.1263 19.9792L34.0439 20.0818L33.9551 20.1841L33.8684 20.2867L33.7709 20.3844L33.6713 20.4822L33.5695 20.5753L33.4633 20.6639L33.3485 20.7524L33.2336 20.8361L33.1123 20.9155L32.9932 20.9946L32.8653 21.0645L32.7353 21.1342L32.6032 21.1995L32.4645 21.2554L32.3259 21.3113L32.1786 21.3626L32.0312 21.4044L31.8839 21.4463L31.7279 21.4789L31.5719 21.5068L31.4138 21.5302L31.2491 21.544L31.0823 21.5581H30.9176H30.7703L30.6273 21.5489L30.4887 21.5394L30.35 21.5208L30.2179 21.4976L30.0879 21.4743L29.96 21.4417L29.8344 21.4044L29.7196 21.3672L29.6004 21.3205L29.4899 21.2694L29.3837 21.2135L29.2776 21.1576L29.1823 21.0923L29.0848 21.0224L28.9981 20.9527L28.9093 20.8734L28.8313 20.7897L28.7533 20.7057L28.684 20.6126L28.619 20.5148L28.5561 20.4171L28.4998 20.3099L28.45 20.2027L28.4088 20.091L28.3676 19.97L28.3351 19.8488L28.307 19.7232L28.2832 19.588L28.2702 19.453L28.2615 19.3134L28.2572 19.1689L28.2615 19.0059L28.2745 18.8522L28.2983 18.6986L28.3243 18.5496L28.3611 18.4097L28.4088 18.2701L28.463 18.1397L28.5236 18.0093L28.593 17.8835L28.6666 17.7671L28.749 17.6505L28.8399 17.5388L28.9374 17.4318L29.0436 17.3338L29.1541 17.2361L29.2733 17.143L29.3989 17.0498L29.5267 16.9661L29.6654 16.8867L29.8084 16.8076L29.9557 16.7331L30.1117 16.6632L30.2677 16.5981L30.4345 16.5376L30.6078 16.4769L30.7833 16.4258L30.9631 16.3746L31.1516 16.3233L31.3401 16.2814L31.5394 16.2396L31.7366 16.2023L31.9446 16.1696L32.1374 16.1416L32.3389 16.1137L32.5425 16.0905L32.7548 16.0671L32.965 16.0533L33.186 16.0346L33.407 16.0252L33.6345 16.016L33.7709 16.0112L33.9096 16.0066L34.0526 16.002H34.1912H34.3342H34.4751H34.6181H34.7654V17.9767Z"/>
        <path fill-rule="evenodd" clip-rule="evenodd"
              d="M55.824 6.23088V17.1429V17.306L55.8153 17.4642L55.8002 17.6181L55.7785 17.7671L55.7547 17.9162L55.7222 18.0558L55.681 18.1956L55.6312 18.326L55.59 18.433L55.538 18.5401L55.4839 18.6473L55.4275 18.7545L55.369 18.8568L55.304 18.964L55.2347 19.0712L55.161 19.1735L55.083 19.2761L55.005 19.3784L54.9162 19.481L54.8296 19.5788L54.7386 19.6719L54.6411 19.765L54.5392 19.8536L54.4331 19.9419L54.3226 20.0259L54.2121 20.1096L54.0929 20.1841L53.9738 20.2586L53.8438 20.3239L53.716 20.389L53.5816 20.4497L53.443 20.5008L53.3022 20.5521L53.1548 20.5939L53.001 20.6312L52.845 20.6592L52.689 20.6871L52.5222 20.7011L52.3576 20.7151H52.1821L51.9698 20.7105L51.7639 20.6965L51.5603 20.6733L51.3675 20.636L51.1833 20.5939L51.0035 20.538L50.8345 20.473L50.672 20.3984L50.516 20.3193L50.3687 20.2262L50.2257 20.1236L50.0914 20.0118L49.9679 19.8955L49.8444 19.765L49.7339 19.63L49.6277 19.4856L49.5259 19.332L49.4349 19.1689L49.3504 18.9967L49.2681 18.8196L49.1988 18.6333L49.1294 18.4378L49.071 18.2329L49.019 18.0231L48.9735 17.8044L48.9323 17.5808L48.8998 17.3479L48.8716 17.1057L48.85 16.8589L48.8348 16.6027L48.8261 16.3419L48.8218 16.0719V6.22212H43.2322V17.1057V17.3805L43.2408 17.6459L43.2517 17.9021L43.2647 18.1583L43.2842 18.4097L43.3058 18.6565L43.334 18.8941L43.3622 19.1317L43.399 19.3598L43.4358 19.5834L43.477 19.8023L43.5268 20.0164L43.5788 20.2262L43.633 20.4311L43.6893 20.6312L43.7521 20.8223L43.8171 21.0132L43.8908 21.1995L43.9601 21.3812L44.0381 21.558L44.1161 21.7303L44.1941 21.898L44.2829 22.061L44.3696 22.2241L44.4563 22.3777L44.5494 22.5314L44.6469 22.6804L44.7466 22.8202L44.8484 22.9598L44.9546 23.0951L45.0607 23.2255L45.1712 23.351L45.286 23.4768L45.4052 23.5932L45.5244 23.7098L45.6457 23.8168L45.7735 23.9239L45.8992 24.0265L46.0313 24.1243L46.1656 24.2174L46.3043 24.306L46.4408 24.3897L46.5838 24.4688L46.7268 24.5481L46.8741 24.6178L47.0258 24.6877L47.1774 24.7482L47.3356 24.8089L47.4959 24.8648L47.6519 24.9159L47.8187 24.9672L47.979 25.009L48.1502 25.0511L48.3148 25.0884L48.486 25.1256L48.6615 25.1535L48.8348 25.1815L49.0103 25.2048L49.1901 25.2234L49.3699 25.242L49.5541 25.256L49.7382 25.2606L49.9267 25.2698H50.1152H50.282L50.4424 25.2652L50.5983 25.2606L50.7543 25.2512L50.9125 25.2374L51.0641 25.2234L51.2158 25.2094L51.3631 25.1861L51.5061 25.1675L51.6491 25.1394L51.7921 25.1162L51.9286 25.0836L52.0629 25.0557L52.1972 25.0185L52.3294 24.9812L52.4594 24.9439L52.7064 24.86L52.9512 24.7717L53.1808 24.6785L53.4062 24.5854L53.6228 24.4828L53.8308 24.3805L54.028 24.2687L54.2164 24.1569L54.3963 24.0403L54.5717 23.9239L54.7386 23.803L54.8989 23.6818L55.0505 23.556L55.1935 23.4256L55.3279 23.2952L55.4557 23.1602L55.5792 23.0297L55.6962 22.8993L55.8002 22.7735L55.902 22.6526L55.9995 22.5362L56.0861 22.4196L56.1641 22.3126L56.2378 22.2009L56.9571 24.8462H61.4959V6.23088H55.824Z"/>
        <path fill-rule="evenodd" clip-rule="evenodd"
              d="M11.2082 0.00436592V6.22211H8.59778V10.4652H11.2082V18.0371L11.2128 18.2701L11.2173 18.4983L11.2221 18.7264L11.2312 18.9454L11.245 19.1643L11.2635 19.3784L11.2819 19.588L11.3048 19.7977L11.3278 19.9978L11.3555 20.1981L11.3878 20.3938L11.4247 20.5847L11.4615 20.771L11.5029 20.9573L11.5442 21.1342L11.5904 21.3113L11.6409 21.4835L11.6961 21.6512L11.7514 21.8143L11.8114 21.9725L11.8757 22.131L11.9403 22.28L12.0092 22.429L12.0828 22.5686L12.1565 22.7085L12.2349 22.8435L12.3177 22.9739L12.4052 23.1043L12.4927 23.2255L12.5848 23.3418L12.6815 23.4582L12.7781 23.5654L12.8702 23.6585L12.9622 23.7517L13.0589 23.8402L13.1557 23.9286L13.2614 24.0125L13.3674 24.0962L13.4824 24.1802L13.5977 24.2593L13.7127 24.3384L13.8371 24.4129L13.9612 24.4828L14.0901 24.5573L14.2238 24.6227L14.3573 24.6877L14.5 24.7531L14.638 24.8089L14.7854 24.8694L14.9327 24.9207L15.0846 24.9718L15.2366 25.0185L15.3931 25.0649L15.5543 25.1022L15.7152 25.1395L15.8821 25.1721L16.0467 25.2048L16.2179 25.2326L16.3869 25.2512L16.5623 25.2699L16.7378 25.2885L16.9176 25.2979L17.0975 25.3025L17.2816 25.3071L17.5849 25.3025L17.8644 25.2933L18.1287 25.2793L18.3671 25.2607L18.5924 25.2374L18.8004 25.2094L18.9975 25.1767L19.1773 25.1395L19.3528 25.1022L19.5131 25.0603L19.6648 25.0139L19.8165 24.9672L20.1024 24.8648L20.3841 24.7577V20.4311L20.3104 20.4589L20.2129 20.487L20.0981 20.5148L19.9551 20.5381L19.7948 20.5615L19.615 20.5753L19.4221 20.5893L19.2142 20.5939L19.03 20.5893L18.8589 20.5801L18.6942 20.5615L18.5382 20.5335L18.3909 20.5008L18.2522 20.4635L18.1179 20.4171L17.9944 20.3612L17.8796 20.3007L17.7691 20.2354L17.6629 20.1563L17.5698 20.0771L17.4788 19.9886L17.3965 19.8955L17.3185 19.7929L17.2491 19.6811L17.1841 19.5693L17.1235 19.4438L17.0693 19.318L17.0173 19.1829L16.9761 19.0385L16.935 18.8941L16.9025 18.7359L16.87 18.5774L16.8483 18.4097L16.8245 18.2329L16.8072 18.0558L16.792 17.8695L16.7833 17.674L16.7747 17.4783L16.7703 17.2734V17.0638V10.4652H20.3234V6.22211H16.7703V0.00436592H11.2082Z"/>
        <path fill-rule="evenodd" clip-rule="evenodd"
              d="M53.7117 -2.09808e-05L50.2582 5.02109H54.2533L59.1215 -2.09808e-05H53.7117Z"/>
    </symbol>
    <symbol id="smiles" viewBox="0 0 72 29" fill="currentColor">
        <path d="M37.6582 3.45407C38.5941 3.45407 39.3549 2.69324 39.3549 1.75732C39.3549 0.821393 38.5941 0.0637421 37.6582 0.0637421C36.7223 0.0637421 35.9646 0.821393 35.9614 1.75732C35.9614 2.69324 36.7223 3.45407 37.6582 3.45407ZM44.4261 18.4129H44.4392C45.0918 18.4129 45.6712 18.2474 46.12 18.0341C46.5721 17.8176 46.8904 17.5693 47.0528 17.3464C47.1515 17.2 47.2151 17.0249 47.2151 16.8371C47.2151 16.697 47.1833 16.5538 47.1164 16.4105C46.9509 16.0826 46.6007 15.9235 46.2919 15.9171C46.2349 15.9171 46.1773 15.9236 46.1232 15.9361C45.9545 15.9839 45.8367 16.0412 45.7189 16.0794C45.598 16.1208 45.4706 16.1494 45.251 16.1494C44.8913 16.1494 44.6747 16.0093 44.5315 15.8661C44.5063 15.8374 44.2864 15.5637 44.2036 15.2199C44.0699 14.6532 44.0603 13.8446 44.054 13.278C44.0637 13.0711 44.0637 1.63945 44.0637 1.33066C44.0637 0.907269 43.8473 0.566644 43.5449 0.366094C43.2424 0.15917 42.8605 0.0668509 42.4816 0.0668509C42.0965 0.0668509 41.708 0.162357 41.4024 0.366094C41.0937 0.563456 40.8645 0.894536 40.8677 1.31156V14.8442C40.8677 15.5987 41.0809 16.4837 41.6412 17.1904C42.1983 17.8971 43.1088 18.4128 44.4267 18.4128L44.4261 18.4129ZM50.9686 7.26772C51.7708 6.12168 52.6112 5.9848 53.006 5.98161C53.6522 5.98813 54.308 6.40819 54.4958 7.41415C54.5275 7.58287 54.5406 7.74841 54.5406 7.90757C54.5406 8.60157 54.2732 9.20323 53.8721 9.66163C52.9138 10.7249 51.58 11.0273 50.1697 11.1769C50.1697 11.0528 50.1697 10.9254 50.1697 10.7981C50.1697 9.55658 50.3385 8.15588 50.9688 7.26772H50.9686ZM48.8518 16.7925C49.9024 17.7889 51.3349 18.3969 53.1271 18.3969H53.1353C54.1094 18.3969 55.0134 18.2282 55.6915 17.948C56.0289 17.8048 56.3123 17.6361 56.5224 17.4355C56.7293 17.235 56.8694 16.9898 56.8694 16.7161C56.8694 16.6747 56.8694 16.6301 56.8563 16.5855C56.7895 16.1208 56.4075 15.8056 55.9745 15.8152C55.8662 15.8152 55.758 15.8311 55.6498 15.8661C55.1181 16.0348 54.6056 16.1271 53.9785 16.1271C53.8003 16.1271 53.6188 16.1206 53.4214 16.1049C52.0971 15.9998 51.3172 15.204 50.8461 14.389C50.6136 13.9847 50.4608 13.5772 50.3717 13.2653C50.3301 13.1284 50.3016 13.0074 50.2826 12.9151C52.0939 12.8387 53.6602 12.6286 55.1404 11.8455C55.8981 11.4221 56.834 10.7376 57.3179 9.7858C57.6203 9.16822 57.7795 8.45832 57.7795 7.81527C57.7795 7.61153 57.7632 7.41416 57.7314 7.22953C57.4226 5.48502 55.8022 4.16073 53.2937 4.16709C51.5492 4.16709 49.3049 4.85471 47.936 6.97168C47.4108 7.79617 46.704 9.37833 46.704 11.3775C46.704 11.855 46.7456 12.3548 46.8378 12.8737C47.1402 14.4145 47.8055 15.7929 48.8528 16.7925L48.8518 16.7925ZM17.8147 17.9035C18.1171 18.1104 18.4991 18.2027 18.8779 18.2027C19.2631 18.2027 19.6515 18.1072 19.9603 17.9035C20.2659 17.7061 20.4951 17.3719 20.4919 16.958C20.4919 16.958 20.4919 9.55659 20.4919 9.52158C20.5107 8.94857 20.6638 8.18137 21.0045 7.57971C21.3483 6.97485 21.8417 6.54828 22.6185 6.5451C22.975 6.54836 23.2201 6.6597 23.4206 6.83797C23.7199 7.10856 23.895 7.5606 23.9873 8.01901C24.0764 8.47742 24.0859 8.93266 24.0859 9.19051C24.0859 9.25095 24.0859 16.7384 24.0859 16.9389C24.0859 17.3687 24.3184 17.7093 24.6367 17.9067C24.9583 18.1104 25.3593 18.2027 25.7604 18.2027C26.1679 18.2027 26.5786 18.1072 26.9065 17.9067C27.228 17.7093 27.4763 17.3782 27.4731 16.958V9.51521C27.4951 8.94538 27.6482 8.17818 27.9857 7.57971C28.3327 6.97485 28.826 6.54828 29.5997 6.5451C29.9562 6.54836 30.2045 6.6597 30.405 6.83797C30.7011 7.10856 30.8794 7.56379 30.9685 8.0222C31.0608 8.48061 31.0704 8.93266 31.0704 9.19051C31.0704 9.25095 31.0704 16.4614 31.0704 16.9389C31.0704 17.3687 31.3059 17.7093 31.6243 17.9067C31.9427 18.1104 32.3469 18.2027 32.748 18.2027C33.1555 18.2027 33.5662 18.1072 33.8909 17.9067C34.2156 17.7093 34.4639 17.3782 34.4607 16.958V9.65528C34.4607 7.80572 34.0978 6.42731 33.4198 5.49457C32.7385 4.56183 31.7326 4.10661 30.5483 4.1098C29.4055 4.1098 28.5332 4.66052 27.922 5.29084C27.5017 5.72378 27.1994 6.19174 26.9988 6.56101C26.7155 5.81928 26.3144 5.23991 25.8018 4.83243C25.1874 4.34537 24.4202 4.1098 23.5607 4.1098C22.0963 4.11305 21.0936 5.00433 20.4792 5.82565V5.75239C20.4792 5.32581 20.2659 4.98837 19.9634 4.78782C19.6611 4.58089 19.2822 4.48857 18.9034 4.48857C18.515 4.48857 18.1266 4.58408 17.821 4.78782C17.5122 4.98519 17.2862 5.31626 17.2862 5.73328C17.2862 5.73328 17.2862 16.6301 17.2862 16.9389C17.2862 17.3623 17.4995 17.7029 17.8019 17.9034L17.8147 17.9035ZM38.7265 4.78782C38.424 4.58089 38.0453 4.48857 37.6632 4.48857C37.278 4.48857 36.8897 4.58408 36.584 4.78782C36.2753 4.98519 36.0492 5.31626 36.0492 5.73328C36.0492 5.73328 36.0492 16.6301 36.0492 16.9389C36.0492 17.3623 36.2626 17.7029 36.565 17.9034C36.8673 18.1104 37.2494 18.2027 37.6282 18.2027C38.0134 18.2027 38.4018 18.1072 38.7074 17.9034C39.0162 17.7061 39.2454 17.3718 39.2422 16.958C39.2422 16.958 39.2422 6.06118 39.2422 5.75239C39.2422 5.32581 39.0289 4.98837 38.7265 4.78782ZM71.8912 10.5657C71.8781 10.4893 71.8276 10.4256 71.7543 10.4033C71.6809 10.3811 71.6015 10.4001 71.5473 10.4575C71.5473 10.4575 71.5026 10.5084 71.4073 10.6039C71.315 10.6994 71.1717 10.8426 70.9839 11.0209C70.6051 11.3838 70.0353 11.9027 69.2808 12.5235C68.7459 12.966 68.1157 13.4594 67.393 13.9878C67.3767 13.7777 67.345 13.5804 67.3007 13.3957C67.1097 12.619 66.6544 12.0301 66.1005 11.5589C65.2633 10.8522 64.1905 10.3874 63.3119 9.88126C62.8694 9.62658 62.481 9.36555 62.1914 9.07267C61.9017 8.77661 61.717 8.45827 61.6597 8.06353C61.6467 7.99035 61.6434 7.91391 61.6434 7.83752C61.6434 7.43004 61.7994 7.00346 62.1304 6.68193C62.3087 6.51003 62.8403 6.16304 63.5916 6.16304C64.5243 6.16304 65.3139 6.57052 65.7564 6.57052C66.2561 6.58003 66.6891 6.28719 66.8196 5.80331C66.8448 5.70781 66.8579 5.60913 66.8579 5.51362C66.8579 4.9629 66.3995 4.45037 65.7756 4.29438C65.7756 4.29438 65.2121 4.10337 64.0215 4.10337C62.3629 4.10663 61.0036 4.51404 60.0486 5.23031C59.0936 5.94657 58.5556 6.97799 58.5556 8.16221C58.5556 8.48692 58.5971 8.82436 58.6766 9.16818C59.0363 10.6294 60.4752 11.422 61.8027 12.1319C62.4712 12.4853 63.1238 12.8195 63.6108 13.1793C64.1043 13.5422 64.4162 13.9178 64.4831 14.3571C64.4929 14.4335 64.4986 14.5067 64.4986 14.58C64.4986 14.9811 64.3363 15.3535 63.9925 15.6432C63.6455 15.9329 63.0979 16.1366 62.3243 16.1494H62.251C61.4074 16.1526 60.6847 15.9074 60.2104 15.7005C60.0035 15.6018 59.7902 15.5541 59.5897 15.5541C59.0867 15.5476 58.6664 15.8915 58.5996 16.3913C58.5914 16.4391 58.5898 16.4868 58.5898 16.5346C58.5898 16.8943 58.7809 17.1904 59.0419 17.4196C59.4366 17.7634 59.9969 17.9958 60.5285 18.1517C54.6647 21.0837 46.5215 23.7322 36.2232 23.7322V23.7355V23.7322C25.8262 23.7322 17.6226 21.0327 11.7492 18.0658C12.9589 17.8366 13.9362 17.3495 14.6652 16.6874C15.6966 15.7546 16.2219 14.4845 16.2187 13.1665C16.2187 12.8673 16.1935 12.5617 16.1388 12.2561C15.9543 11.2438 15.4035 10.4415 14.6936 9.78575C13.6303 8.7989 12.2074 8.1081 11.02 7.41411C10.4278 7.06713 9.89305 6.72013 9.49829 6.35086C9.10031 5.98159 8.84565 5.59321 8.76928 5.15708C8.74724 5.0393 8.7342 4.91514 8.7342 4.79099C8.7342 4.23071 8.95066 3.63223 9.42822 3.17382C9.90252 2.71541 10.6443 2.38434 11.7362 2.38116C12.3283 2.38116 13.0222 2.47984 13.8245 2.71223C14.0569 2.77905 14.2702 2.8141 14.4676 2.8141C15.0182 2.82361 15.429 2.51804 15.5945 2.08192C15.6548 1.92593 15.6868 1.76994 15.6868 1.62032C15.6868 1.24467 15.4894 0.929516 15.2124 0.706688C14.9355 0.483848 14.579 0.334223 14.2033 0.254638C13.4552 0.105015 12.6435 0.00314517 11.7903 -3.05176e-05C11.7821 -3.05176e-05 11.7748 -3.05176e-05 11.7683 -3.05176e-05C9.48898 -3.05176e-05 7.83356 0.63983 6.75122 1.59486C5.66571 2.54669 5.16272 3.80732 5.16272 5.01065C5.16272 5.27805 5.18797 5.54227 5.23607 5.80014C5.57036 7.55738 7.02522 8.68111 8.50867 9.59157C9.99849 10.4988 11.5519 11.2342 12.1409 12.0651C12.4624 12.5076 12.6152 13.0424 12.6152 13.5581C12.6152 14.0834 12.4529 14.5831 12.1568 14.9397C11.5965 15.6146 10.5397 16.0698 9.40316 16.0698C8.68372 16.0698 7.93878 15.8915 7.25756 15.4872C7.21923 15.4618 7.11747 15.4076 7.10793 15.4013C5.47485 14.3412 4.16009 13.3416 3.1669 12.5235C2.41242 11.9027 1.84579 11.3838 1.46692 11.0209C1.27598 10.8426 1.13271 10.6994 1.04037 10.6039C0.944864 10.5084 0.900288 10.4575 0.900288 10.4575C0.8465 10.4001 0.766633 10.3811 0.693364 10.4033C0.62328 10.4257 0.569251 10.4893 0.559715 10.5657C0.518184 10.849 0.489624 11.2056 0.489624 11.6194C0.489624 11.6513 0.489624 11.683 0.489624 11.7149V11.7436C0.509191 12.8164 0.871675 13.6441 1.84897 14.5482C2.08457 14.7869 15.1938 28.1158 36.2234 28.119C57.2561 28.1158 70.3622 14.7869 70.5978 14.5482C71.5751 13.6441 71.938 12.8164 71.957 11.7436V11.6194C71.957 11.2056 71.9285 10.8491 71.8902 10.5657"/>
    </symbol>
    <symbol id="marisa" viewBox="0 0 97 21" fill="currentColor">
        <path d="M24.557 1.85412C23.2225 0.66792 21.3461 0.014679 19.2723 0.014679C17.2417 0.014679 15.2848 0.766548 13.9032 2.07703L13.7886 2.18532L13.6741 2.07703C12.2925 0.766548 10.3358 0.014679 8.30544 0.014679C6.23193 0.014679 4.35517 0.66792 3.0207 1.85412C1.7427 2.99 0.950684 4.1697 0.950684 6.53643L0.951183 20.292H4.69237L4.69304 6.53643C4.69304 4.72748 6.27941 3.31037 8.30561 3.31037C10.3311 3.31037 11.9182 4.72731 11.9182 6.53643L11.9185 20.292H15.66L15.6607 6.53643C15.6607 4.72748 17.2471 3.31037 19.2728 3.31037C21.2986 3.31037 22.8855 4.72731 22.8855 6.53643L22.8862 20.292H26.6269L26.628 6.53643C26.627 4.1697 25.835 2.99 24.557 1.85412Z"/>
        <path d="M41.6462 1.83288C40.3776 0.642849 38.5819 0.0139313 36.4538 0.0139313C32.91 0.0139313 30.89 2.03546 29.9182 3.00941L31.4598 5.71784L31.4676 5.70934C32.3902 4.70991 34.9124 2.50911 38.3948 3.65816L38.4105 3.66415C39.1286 3.98503 39.9837 4.63643 39.986 5.91759L39.9864 5.92592C40.0047 6.08669 40.014 6.25779 40.014 6.43472V7.4968L35.99 8.29665C34.0607 8.676 32.4998 9.32874 31.3495 10.2369C29.9247 11.3616 29.2021 12.819 29.2021 14.5695C29.2021 16.4221 29.9727 17.9867 31.4308 19.0945C32.7256 20.0785 34.4842 20.6206 36.3826 20.6206C38.2761 20.6206 40.0487 19.9952 41.3742 18.8598C42.7628 17.6703 43.5276 16.0154 43.5276 14.1998V6.43489C43.5271 4.44618 42.9645 3.07005 41.6462 1.83288ZM40.014 14.1995C40.014 15.1229 39.6823 15.9706 39.0802 16.5854C38.4165 17.2629 37.4715 17.6218 36.3468 17.6218C35.5635 17.6218 34.1227 17.4695 33.2774 16.4488C32.6188 15.6539 32.5172 14.5012 33.025 13.5787C33.9234 11.9479 35.9741 11.3331 37.8624 10.9469L38.0708 10.9045C38.4891 10.8198 39.4691 10.6211 39.8149 10.5479L40.014 10.5056V14.1995Z"/>
        <path d="M57.633 1.63928C57.3339 1.37555 57.0174 1.13698 56.6917 0.929897C55.9316 0.446755 55.1594 0.151039 54.3949 0.0517449C52.9118 -0.140512 51.154 0.210849 49.8076 0.969548C49.3751 1.21295 48.978 1.5035 48.6274 1.83287C47.4075 2.97725 46.7464 4.05 46.7464 6.43489V20.2914H50.2592L50.2595 7.18942C50.2595 6.87571 50.2595 6.56134 50.2597 6.24796C50.26 5.91259 50.2674 5.60988 50.3542 5.30133C50.4961 4.8007 50.81 4.33288 51.2393 3.98402C51.4337 3.82608 51.6433 3.69647 51.8622 3.59867C53.2287 3.03157 54.7238 3.3636 55.8941 4.48316C57.4604 3.02457 58.0486 2.47745 58.274 2.2697C58.0879 2.06312 57.7093 1.70692 57.633 1.63928Z"/>
        <path d="M89.9256 0.0137634C86.3819 0.0137634 84.3618 2.0353 83.39 3.00924L84.9321 5.71767L84.9399 5.70918C85.8627 4.70974 88.3851 2.50894 91.8674 3.65799L91.8829 3.66399C92.6011 3.98503 93.4559 4.63643 93.4586 5.91743L93.4589 5.92576C93.477 6.08653 93.4864 6.25763 93.4864 6.43456V7.49664L89.4623 8.29649C87.5329 8.67584 85.9717 9.32858 84.8218 10.2367C83.3965 11.3614 82.6742 12.819 82.6742 14.5693C82.6742 16.4219 83.4447 17.9865 84.9028 19.0944C86.1978 20.0783 87.9564 20.6204 89.855 20.6204C91.7484 20.6204 93.521 19.995 94.8467 18.8596C96.2351 17.6701 97 16.0153 97 14.1996V6.43489C97 4.57879 96.3497 2.98742 95.1189 1.83288C93.8492 0.642848 92.0539 0.0137634 89.9256 0.0137634ZM93.4859 14.1995C93.4859 15.1229 93.1542 15.9706 92.5519 16.5854C91.8885 17.2629 90.9434 17.6218 89.8183 17.6218C89.0356 17.6218 87.5947 17.4695 86.7489 16.4488C86.0903 15.6539 85.989 14.5012 86.4968 13.5787C87.395 11.9479 89.446 11.3331 91.3341 10.9469L91.5358 10.906C91.9553 10.8208 92.9388 10.6216 93.287 10.5484L93.4859 10.5061V14.1995Z"/>
        <path d="M76.8193 9.46569C75.9145 8.98321 74.972 8.62835 73.9223 8.24667L73.768 8.19102C73.0911 7.94529 72.3917 7.69172 71.7445 7.36469C70.9278 6.95235 70.4727 6.50119 70.312 5.94508L70.3069 5.92775C70.1663 5.41446 70.2834 4.86401 70.6213 4.45267C70.9383 4.06616 71.4299 3.76794 72.0823 3.56602C72.3707 3.47672 72.6749 3.41275 72.985 3.37543C74.1065 3.24098 75.2623 3.44207 76.3258 3.95637C77.0389 4.30106 77.7096 4.77488 78.3185 5.36381C78.3472 5.39147 78.5966 5.64137 78.6549 5.70884L78.6631 5.71784L78.6679 5.70901C78.6787 5.68952 80.115 3.16651 80.2048 3.00908C79.232 2.03446 77.2125 0.0135956 73.6692 0.0135956C71.4776 0.0135956 69.4927 0.712819 68.2237 1.932C66.9024 3.2015 66.3869 5.08426 66.8774 6.84489C67.2513 8.18803 68.3205 9.38755 69.8872 10.2237C70.8677 10.7467 71.9441 11.1475 72.8757 11.4824L72.9938 11.5249C73.8095 11.8181 74.6533 12.1203 75.3947 12.5808C76.2685 13.1241 76.7113 13.8268 76.7113 14.6695C76.7113 15.8307 75.7637 16.6455 74.7398 17.0918C73.5991 17.5888 72.2734 17.4282 71.1007 17.078C69.506 16.6104 67.8942 14.9802 67.878 14.964L66.2936 17.6263C67.2669 18.6016 69.2866 20.6203 72.8274 20.6203C73.1144 20.6203 73.407 20.6074 73.6985 20.5816L73.8778 20.5658V20.5703L73.8843 20.5696C75.4507 20.4115 76.8658 19.8841 77.9765 19.0447C79.4258 17.9495 80.224 16.3959 80.224 14.6695C80.224 13.43 79.8768 12.3054 79.2204 11.4172C78.6682 10.6714 77.883 10.0328 76.8193 9.46569Z"/>
        <path d="M63.719 0.349808H60.2059V20.2907H63.719V0.349808Z"/>
    </symbol>

    <!-- cards -->
    <symbol id="layers" viewBox="0 0 39 41" fill="none">
        <path d="M0 5.40623C0 3.74938 1.34315 2.40623 3 2.40623H16.5V38.4062H3C1.34315 38.4062 0 37.0631 0 35.4062V5.40623Z"
              fill="#F7B40D"/>
        <path d="M36 37.7478C37.6181 37.7513 39 36.4379 39 34.7468V4.56566C39 2.87463 37.6181 1.56121 36 1.56464V37.7478Z"
              fill="#ED0394"/>
        <path d="M18 2.40623L30.9633 0.0492551C32.8049 -0.285567 34.5 1.12915 34.5 3.00086V37.8116C34.5 39.6833 32.8049 41.098 30.9633 40.7632L18 38.4062V2.40623Z"
              fill="url(#paint0_linear_701_466)"/>
        <defs>
            <linearGradient id="paint0_linear_701_466" x1="15.3398" y1="20.6858" x2="37.1583" y2="20.6513"
                            gradientUnits="userSpaceOnUse">
                <stop stop-color="#F7B40D"/>
                <stop offset="1" stop-color="#EC0393"/>
            </linearGradient>
        </defs>
    </symbol>
    <symbol id="squares" viewBox="0 0 39 39" fill="none">
        <path d="M1.5 25.5C1.5 23.8431 2.84315 22.5 4.5 22.5H13.5C15.1569 22.5 16.5 23.8431 16.5 25.5V34.5C16.5 36.1569 15.1569 37.5 13.5 37.5H4.5C2.84315 37.5 1.5 36.1569 1.5 34.5V25.5Z"
              fill="#ED0394"/>
        <path d="M0 7.5C0 5.84315 1.34315 4.5 3 4.5H13.5C15.1569 4.5 16.5 5.84315 16.5 7.5V18C16.5 19.6569 15.1569 21 13.5 21H3C1.34315 21 0 19.6569 0 18V7.5Z"
              fill="#F7B40D"/>
        <path d="M18 25.5C18 23.8431 19.3431 22.5 21 22.5H31.5C33.1569 22.5 34.5 23.8431 34.5 25.5V36C34.5 37.6569 33.1569 39 31.5 39H21C19.3431 39 18 37.6569 18 36V25.5Z"
              fill="#F7B40D"/>
        <path d="M18 3C18 1.34315 19.3431 0 21 0H36C37.6569 0 39 1.34315 39 3V18C39 19.6569 37.6569 21 36 21H21C19.3431 21 18 19.6569 18 18V3Z"
              fill="url(#paint0_linear_701_461)"/>
        <defs>
            <linearGradient id="paint0_linear_701_461" x1="14.6143" y1="10.6438" x2="42.383" y2="10.5352"
                            gradientUnits="userSpaceOnUse">
                <stop stop-color="#F7B40D"/>
                <stop offset="1" stop-color="#EC0393"/>
            </linearGradient>
        </defs>
    </symbol>
    <symbol id="triangle" viewBox="0 0 39 37" fill="none">
        <path d="M33.8805 23.25L26.837 9.75H37.5C38.3285 9.75 39 10.4216 39 11.25V21.75C39 22.5784 38.3285 23.25 37.5 23.25H33.8805Z"
              fill="#ED0394"/>
        <path d="M11.9232 15.9597L20.25 0L38.25 34.5H18.1353C19.9167 32.5097 20.9999 29.8813 20.9999 27C20.9999 21.5303 17.0964 16.9722 11.9232 15.9597Z"
              fill="url(#paint0_linear_701_457)"/>
        <path d="M19.5 27C19.5 32.3848 15.1348 36.75 9.75 36.75C4.36522 36.75 0 32.3848 0 27C0 21.6152 4.36522 17.25 9.75 17.25C15.1348 17.25 19.5 21.6152 19.5 27Z"
              fill="#F7B40D"/>
        <defs>
            <linearGradient id="paint0_linear_701_457" x1="7.67863" y1="17.4863" x2="42.4913" y2="17.3824"
                            gradientUnits="userSpaceOnUse">
                <stop stop-color="#F7B40D"/>
                <stop offset="1" stop-color="#EC0393"/>
            </linearGradient>
        </defs>
    </symbol>
</svg>